<svg version="1.1" id="Layer_1" xmlns="http://www.w3.org/2000/svg" xmlns:xlink="http://www.w3.org/1999/xlink" x="0px" y="0px" width="58px" height="58px" viewBox="0 0 595.275 595.275" enable-background="new 0 0 595.275 595.275" xml:space="preserve"><path id="color_x5F_1" fill="#216292" d="M545.558,407.573c-32.636,45.472-83.075,87.637-138.386,115.65    c-47.234,23.935-95.371,36.482-138.717,36.482c-11.096,0-21.865-0.813-32.228-2.475c-54.538-8.72-96.297-53.92-114.608-124.021    c-23.487-89.997-5.334-216.667,65.735-272.868c8.99-7.115,22.059-5.606,29.192,3.403c7.115,8.989,5.588,22.058-3.401,29.173    c-50.866,40.251-73.892,143.316-51.311,229.793c8.023,30.701,28.748,82.764,77.642,92.741c-102.117-83.151-59.353-236-58.87-237.624    c1.316-4.562,5.878-7.347,10.538-6.496c4.659,0.851,7.926,5.104,7.52,9.841c-1.257,15.312,1.971,27.26,9.589,35.514    c12.526,13.65,35.36,15.681,47.851,15.681c9.163,0,15.736-1.044,15.794-1.044c0.173-0.039,0.348,0.019,0.522,0    c31.146-7.889,67.24-24.397,99.101-57.903c7.888-8.332,21.034-8.661,29.367-0.754c8.313,7.907,8.66,21.054,0.754,29.368    c-47.308,49.764-102.369,68.284-144.552,74.605l-7.193,9.338c-33.583,41.877,13.709,119.556,19.429,128.623    c0.852,0.986,1.451,2.185,1.798,3.48c82.514-1.18,184.863-56.976,240.66-134.731c20.219-28.188,50.149-83.057,23.45-133.748    c-14.889-28.283-34.8-45.722-60.898-53.32c-46.904-13.649-100.243,9.105-118.61,18.135c-0.367,3.344-0.617,5.123-0.617,5.123    l-0.06,0.406c-1.622,11.368-12.121,19.275-23.488,17.671c-11.175-1.566-19.024-11.813-17.729-22.968c0,0,0.329-2.9,0.733-8.371    c0.366-5.471,0.813-13.514,0.543-23.625c-0.329-10.054-1.123-22.291-4.118-35.38c-2.9-13.031-8.005-26.989-16.937-38.53    c-8.854-11.582-21.575-20.474-38.492-25.133c-8.506-2.262-17.902-3.422-27.801-3.771c-5.025,0.04-10.15-0.057-15.002,0.407    c-4.563,0.115-10.75,0.986-16.588,1.72c-19.644,2.745-40.114,10.13-57.847,22.484c-17.823,12.296-33.697,28.71-46.57,47.675    c-12.723,19.082-22.735,40.348-29.755,62.387c-6.783,21.248-16.181,59.816-11.445,116.463    c4.061,48.43,19.604,116.364,49.396,184.109c0.117,0.271,7.152,14.691,0.271,20.976c-11.773,10.788-22.156-2.881-22.775-3.789    c-12.179-15.119-32.73-53.146-48.835-100.86C8.154,370.783-15.296,226.54,55.269,127.747c16.086-22.503,34.703-44.156,58.077-60.01    c11.619-7.965,24.187-14.557,37.235-19.526c13.167-4.988,26.274-8.274,40.195-10.208c10.902-1.547,25.694-2.707,38.105-2.377    c12.896,0.444,25.791,1.991,38.356,5.374c12.508,3.422,24.61,8.835,35.187,16.008c10.593,7.172,19.526,16.066,26.504,25.424    c14.035,18.888,20.456,38.762,24.07,55.698c2.34,11.155,3.422,21.208,3.982,30.276c30.411-12.122,80.563-26.003,128.72-12.083    c37.081,10.71,66.14,35.574,86.323,73.91C599.514,282.47,590.119,345.456,545.558,407.573z M305.77,273.479    c0-20.802-17.479-37.718-38.977-37.718c-21.479,0-38.958,16.916-38.958,37.718c0,20.784,17.479,37.7,38.958,37.7    C288.29,311.179,305.77,294.263,305.77,273.479z"></path></svg>